<?xml version="1.0" encoding="UTF-8" standalone="no"?>
<svg xmlns="http://www.w3.org/2000/svg" width="300" height="300" viewBox="0 0 100 100">
  <!-- 漢堡麵包上層 -->
  <path d="M 20,40 C 20,30 80,30 80,40 L 80,35 C 80,25 20,25 20,35 Z" fill="#F5BB60"/>
  <!-- 漢堡麵包上層陰影 -->
  <path d="M 20,40 C 20,30 80,30 80,40" stroke="#E09C37" stroke-width="2" fill="none"/>
  <!-- 生菜 -->
  <path d="M 20,45 C 20,42 80,42 80,45 C 80,48 20,48 20,45 Z" fill="#7EC45A"/>
  <!-- 肉餅 -->
  <path d="M 20,53 C 20,48 80,48 80,53 C 80,58 20,58 20,53 Z" fill="#8B4513"/>
  <!-- 芝士 -->
  <path d="M 20,58 L 80,58 L 75,62 L 25,62 Z" fill="#F5D033"/>
  <!-- 番茄 -->
  <rect x="30" y="62" width="40" height="4" fill="#ED4A4A"/>
  <!-- 漢堡麵包下層 -->
  <path d="M 20,66 C 20,76 80,76 80,66 L 80,71 C 80,81 20,81 20,71 Z" fill="#F5BB60"/>
  <!-- 漢堡麵包下層陰影 -->
  <path d="M 20,66 C 20,76 80,76 80,66" stroke="#E09C37" stroke-width="2" fill="none"/>
</svg>